<svg id="Layer_1" data-name="Layer 1" xmlns="http://www.w3.org/2000/svg" viewBox="0 0 683.36 213.65"><defs><style>.cls-1{fill:#fff;}</style></defs><title>logo</title><g id="Layer_1-2" data-name="Layer 1"><path class="cls-1" d="M10,199q2.26-4.95,7.49-3.25a41.39,41.39,0,0,0,14.55,2.68q9,0,14.7-4.24t5.65-13.28v-5.37l.28-3.67h-.28q-6.22,10.74-19.78,10.74-15.26,0-24-10.46T0,146q0-15.54,8.48-25.65t24-10.1a31.43,31.43,0,0,1,8.62,1.13,20,20,0,0,1,6.22,2.76,27.51,27.51,0,0,1,3.82,3.25,12.32,12.32,0,0,1,2.12,2.75l.57,1.13h.28a10,10,0,0,1-.14-1.84v-2.68a4.48,4.48,0,0,1,1.48-3.46,6.23,6.23,0,0,1,4.31-1.34h4.8q5.79,0,5.79,5.93v61.75q0,17.1-11.09,25.58t-26.21,8.48q-12.15,0-21.06-3.82-5.37-2.27-3.11-7.63Zm26.14-31.51a15.83,15.83,0,0,0,11.94-4.95q4.74-5,4.73-16.11,0-20.91-17.52-20.91-8.19,0-12.72,5.37t-4.52,14.41q0,10,4.8,16.11T36.17,167.44Z"/><path class="cls-1" d="M85.77,158.26V117.84c0-4,2-5.93,5.94-5.93h6.08c4,0,5.93,2,5.93,5.93v36.74c0,4.8.82,8.46,2.47,10.95s4.54,3.74,8.69,3.74a17.63,17.63,0,0,0,14.77-7.07q5.43-7.06,5.44-17.24V117.83c0-4,2-5.93,5.93-5.93h6.08q5.94,0,5.94,5.93V178c0,4-2,5.93-5.94,5.93h-5.51q-5.79,0-5.79-5.93v-4.24l.28-3.25h-.28a26.27,26.27,0,0,1-9.61,10.6,27.17,27.17,0,0,1-15.4,4.52Q85.77,185.68,85.77,158.26Z"/><path class="cls-1" d="M169.29,178v-60.2c0-4,1.93-5.93,5.79-5.93h5.51q5.79,0,5.79,5.93v4.38l-.28,3.25h.28a28.63,28.63,0,0,1,9.4-10.67,23.9,23.9,0,0,1,14.2-4.59q16.53,0,21.05,14.84h.28a27.54,27.54,0,0,1,9.82-10.46,26.47,26.47,0,0,1,14.77-4.38q23.6,0,23.6,27.41V178c0,4-2,5.93-5.93,5.93h-6.08q-5.94,0-5.94-5.93V141q0-7.07-2.05-10.74t-7.84-3.67A15.29,15.29,0,0,0,238.17,134a31.31,31.31,0,0,0-4.88,17.59V178c0,4-1.93,5.93-5.79,5.93h-6.22q-5.94,0-5.94-5.93V141q0-6.92-1.91-10.67c-1.27-2.5-3.84-3.74-7.7-3.74A15.53,15.53,0,0,0,192,134.1a31.38,31.38,0,0,0-4.88,17.52V178c0,4-1.93,5.93-5.79,5.93h-6.22Q169.29,184,169.29,178Z"/><path class="cls-1" d="M300.7,199q2.26-4.95,7.49-3.25a41.39,41.39,0,0,0,14.55,2.68q9,0,14.7-4.24t5.65-13.28v-5.37l.28-3.67h-.28q-6.22,10.74-19.78,10.74-15.26,0-23.95-10.46T290.67,146q0-15.54,8.48-25.65t24-10.1a31.43,31.43,0,0,1,8.62,1.13A20,20,0,0,1,338,114.1a27.51,27.51,0,0,1,3.82,3.25A12.32,12.32,0,0,1,344,120.1l.57,1.13h.28a10,10,0,0,1-.14-1.84v-2.68a4.48,4.48,0,0,1,1.48-3.46,6.23,6.23,0,0,1,4.31-1.34h4.8q5.79,0,5.79,5.93v61.75q0,17.1-11.09,25.58t-26.21,8.48q-12.15,0-21.06-3.82-5.37-2.27-3.11-7.63Zm26.14-31.51a15.83,15.83,0,0,0,11.94-4.95q4.74-5,4.73-16.11,0-20.91-17.52-20.91-8.19,0-12.72,5.37t-4.52,14.41q0,10,4.8,16.11T326.84,167.44Z"/><path class="cls-1" d="M376.44,158.26V117.84c0-4,2-5.93,5.94-5.93h6.08c4,0,5.93,2,5.93,5.93v36.74c0,4.8.82,8.46,2.47,10.95s4.54,3.74,8.69,3.74a17.63,17.63,0,0,0,14.77-7.07q5.43-7.06,5.44-17.24V117.83c0-4,2-5.93,5.93-5.93h6.08q5.94,0,5.94,5.93V178c0,4-2,5.93-5.94,5.93h-5.51q-5.79,0-5.79-5.93v-4.24l.28-3.25h-.28a26.27,26.27,0,0,1-9.61,10.6,27.17,27.17,0,0,1-15.4,4.52Q376.44,185.68,376.44,158.26Z"/><path class="cls-1" d="M460,178v-60.2c0-4,1.93-5.93,5.79-5.93h5.51q5.79,0,5.79,5.93v4.38l-.28,3.25H477a28.63,28.63,0,0,1,9.4-10.67,23.9,23.9,0,0,1,14.2-4.59q16.53,0,21.05,14.84H522a27.54,27.54,0,0,1,9.82-10.46,26.47,26.47,0,0,1,14.77-4.38q23.6,0,23.6,27.41V178c0,4-2,5.93-5.93,5.93h-6.08q-5.94,0-5.94-5.93V141q0-7.07-2.05-10.74t-7.84-3.67A15.29,15.29,0,0,0,528.83,134,31.31,31.31,0,0,0,524,151.62V178c0,4-1.93,5.93-5.79,5.93h-6.22Q506,184,506,178V141q0-6.92-1.91-10.67c-1.27-2.5-3.84-3.74-7.7-3.74a15.53,15.53,0,0,0-13.78,7.49,31.38,31.38,0,0,0-4.88,17.52V178c0,4-1.93,5.93-5.79,5.93h-6.22C461.88,184,460,182,460,178Z"/><path class="cls-1" d="M660.42,0h-35.7a23,23,0,0,0-22.94,22.94v41.4a3.21,3.21,0,0,1,0,.36,4.2,4.2,0,0,1-1,.08l-16.59,0A17.64,17.64,0,0,0,566.6,82.37v16A17.63,17.63,0,0,0,584.22,116h16a17.63,17.63,0,0,0,17.62-17.62V82.26a2.48,2.48,0,0,1,.12-.58,3.91,3.91,0,0,1,1-.1h41.46a23,23,0,0,0,22.94-22.94V22.94A23,23,0,0,0,660.42,0Zm6.85,22.94v35.7a6.85,6.85,0,0,1-6.85,6.85H619c-.38,0-.75,0-1.13,0,0-.33,0-.67,0-1V22.94a6.85,6.85,0,0,1,6.85-6.85h35.7A6.85,6.85,0,0,1,667.27,22.94ZM601.85,80.85c-.06.7-.06,1.26-.06,1.63V98.4a1.57,1.57,0,0,1-1.53,1.53h-16a1.57,1.57,0,0,1-1.53-1.53v-16a1.57,1.57,0,0,1,1.53-1.53h15.63C600.35,80.86,601.13,80.88,601.85,80.85Z"/></g></svg>