<?xml version="1.0" encoding="utf-8"?>
<!-- Generator: Adobe Illustrator 24.0.1, SVG Export Plug-In . SVG Version: 6.00 Build 0)  -->
<svg version="1.1" xmlns="http://www.w3.org/2000/svg" xmlns:xlink="http://www.w3.org/1999/xlink" x="0px" y="0px"
	 viewBox="0 0 683.36 213.65" style="enable-background:new 0 0 683.36 213.65;" xml:space="preserve">
<style type="text/css">
	.st0{fill:#565959;}
	.st1{fill:url(#SVGID_1_);}
</style>
<g id="Layer_1">
	<g>
		<g>
			<path class="st0" d="M10.03,198.95c1.51-3.3,4-4.38,7.49-3.25c4.8,1.79,9.66,2.68,14.55,2.68c6.03,0,10.93-1.41,14.7-4.24
				c3.77-2.83,5.65-7.25,5.65-13.28v-5.37l0.28-3.67h-0.28c-4.15,7.16-10.74,10.74-19.78,10.74c-10.17,0-18.16-3.48-23.95-10.46
				C2.9,165.14,0,156.42,0,145.96c0-10.36,2.83-18.91,8.48-25.65c5.65-6.73,13.66-10.1,24.02-10.1c3.11,0,5.98,0.38,8.62,1.13
				c2.64,0.75,4.71,1.67,6.22,2.76c1.51,1.08,2.78,2.17,3.82,3.25c1.04,1.08,1.74,2,2.12,2.75l0.57,1.13h0.28
				c-0.09-0.47-0.14-1.08-0.14-1.84v-2.68c0-1.41,0.5-2.57,1.48-3.46c0.99-0.89,2.42-1.34,4.31-1.34h4.8c3.86,0,5.79,1.98,5.79,5.93
				v61.75c0,11.4-3.7,19.92-11.09,25.58c-7.4,5.65-16.13,8.48-26.21,8.48c-8.1,0-15.12-1.27-21.06-3.82
				c-3.58-1.51-4.62-4.05-3.11-7.63L10.03,198.95z M36.17,167.44c4.8,0,8.78-1.65,11.94-4.95c3.16-3.3,4.73-8.67,4.73-16.11
				c0-13.94-5.84-20.91-17.52-20.91c-5.46,0-9.7,1.79-12.72,5.37c-3.02,3.58-4.52,8.39-4.52,14.41c0,6.69,1.6,12.06,4.8,16.11
				C26.09,165.42,30.52,167.44,36.17,167.44z"/>
			<path class="st0" d="M85.77,158.26v-40.42c0-3.96,1.98-5.93,5.94-5.93h6.08c3.96,0,5.93,1.98,5.93,5.93v36.74
				c0,4.8,0.82,8.46,2.47,10.95c1.65,2.5,4.54,3.74,8.69,3.74c6.22,0,11.14-2.35,14.77-7.07c3.62-4.71,5.44-10.46,5.44-17.24v-27.13
				c0-3.96,1.98-5.93,5.93-5.93h6.08c3.96,0,5.94,1.98,5.94,5.93v60.2c0,3.96-1.98,5.93-5.94,5.93h-5.51
				c-3.86,0-5.79-1.98-5.79-5.93v-4.24l0.28-3.25h-0.28c-1.89,4.05-5.09,7.58-9.61,10.6c-4.52,3.01-9.66,4.52-15.4,4.52
				C94.11,185.67,85.77,176.54,85.77,158.26z"/>
			<path class="st0" d="M169.29,178.04v-60.2c0-3.96,1.93-5.93,5.79-5.93h5.51c3.86,0,5.79,1.98,5.79,5.93v4.38l-0.28,3.25h0.28
				c1.98-4.05,5.11-7.61,9.4-10.67c4.29-3.06,9.02-4.59,14.2-4.59c11.02,0,18.04,4.95,21.05,14.84h0.28
				c2.07-4.05,5.34-7.54,9.82-10.46c4.47-2.92,9.4-4.38,14.77-4.38c15.73,0,23.6,9.14,23.6,27.41v40.42c0,3.96-1.98,5.93-5.93,5.93
				h-6.08c-3.96,0-5.94-1.98-5.94-5.93v-37.02c0-4.71-0.68-8.29-2.05-10.74c-1.37-2.45-3.98-3.67-7.84-3.67
				c-5.75,0-10.24,2.47-13.49,7.42c-3.25,4.95-4.88,10.81-4.88,17.59v26.42c0,3.96-1.93,5.93-5.79,5.93h-6.22
				c-3.96,0-5.94-1.98-5.94-5.93v-37.02c0-4.61-0.64-8.17-1.91-10.67c-1.27-2.5-3.84-3.74-7.7-3.74c-5.94,0-10.53,2.5-13.78,7.49
				c-3.25,4.99-4.88,10.83-4.88,17.52v26.42c0,3.96-1.93,5.93-5.79,5.93h-6.22C171.21,183.98,169.29,182,169.29,178.04z"/>
			<path class="st0" d="M300.7,198.95c1.51-3.3,4-4.38,7.49-3.25c4.8,1.79,9.66,2.68,14.55,2.68c6.03,0,10.93-1.41,14.7-4.24
				c3.77-2.83,5.65-7.25,5.65-13.28v-5.37l0.28-3.67h-0.28c-4.15,7.16-10.74,10.74-19.78,10.74c-10.17,0-18.16-3.48-23.95-10.46
				c-5.79-6.97-8.69-15.69-8.69-26.14c0-10.36,2.83-18.91,8.48-25.65c5.65-6.73,13.66-10.1,24.02-10.1c3.11,0,5.98,0.38,8.62,1.13
				c2.64,0.75,4.71,1.67,6.22,2.76c1.51,1.08,2.78,2.17,3.82,3.25c1.04,1.08,1.74,2,2.12,2.75l0.57,1.13h0.28
				c-0.09-0.47-0.14-1.08-0.14-1.84v-2.68c0-1.41,0.5-2.57,1.48-3.46c0.99-0.89,2.42-1.34,4.31-1.34h4.8c3.86,0,5.79,1.98,5.79,5.93
				v61.75c0,11.4-3.7,19.92-11.09,25.58c-7.4,5.65-16.13,8.48-26.21,8.48c-8.1,0-15.12-1.27-21.06-3.82
				c-3.58-1.51-4.62-4.05-3.11-7.63L300.7,198.95z M326.84,167.44c4.8,0,8.78-1.65,11.94-4.95c3.16-3.3,4.73-8.67,4.73-16.11
				c0-13.94-5.84-20.91-17.52-20.91c-5.46,0-9.7,1.79-12.72,5.37c-3.02,3.58-4.52,8.39-4.52,14.41c0,6.69,1.6,12.06,4.8,16.11
				C316.76,165.42,321.19,167.44,326.84,167.44z"/>
			<path class="st0" d="M376.44,158.26v-40.42c0-3.96,1.98-5.93,5.94-5.93h6.08c3.96,0,5.93,1.98,5.93,5.93v36.74
				c0,4.8,0.82,8.46,2.47,10.95c1.65,2.5,4.54,3.74,8.69,3.74c6.22,0,11.14-2.35,14.77-7.07c3.62-4.71,5.44-10.46,5.44-17.24v-27.13
				c0-3.96,1.98-5.93,5.93-5.93h6.08c3.96,0,5.94,1.98,5.94,5.93v60.2c0,3.96-1.98,5.93-5.94,5.93h-5.51
				c-3.86,0-5.79-1.98-5.79-5.93v-4.24l0.28-3.25h-0.28c-1.89,4.05-5.09,7.58-9.61,10.6c-4.52,3.01-9.66,4.52-15.4,4.52
				C384.78,185.67,376.44,176.54,376.44,158.26z"/>
			<path class="st0" d="M459.95,178.04v-60.2c0-3.96,1.93-5.93,5.79-5.93h5.51c3.86,0,5.79,1.98,5.79,5.93v4.38l-0.28,3.25h0.28
				c1.98-4.05,5.11-7.61,9.4-10.67c4.29-3.06,9.02-4.59,14.2-4.59c11.02,0,18.04,4.95,21.05,14.84h0.28
				c2.07-4.05,5.34-7.54,9.82-10.46c4.47-2.92,9.4-4.38,14.77-4.38c15.73,0,23.6,9.14,23.6,27.41v40.42c0,3.96-1.98,5.93-5.93,5.93
				h-6.08c-3.96,0-5.94-1.98-5.94-5.93v-37.02c0-4.71-0.68-8.29-2.05-10.74c-1.37-2.45-3.98-3.67-7.84-3.67
				c-5.75,0-10.24,2.47-13.49,7.42c-3.25,4.95-4.88,10.81-4.88,17.59v26.42c0,3.96-1.93,5.93-5.79,5.93h-6.22
				c-3.96,0-5.94-1.98-5.94-5.93v-37.02c0-4.61-0.64-8.17-1.91-10.67c-1.27-2.5-3.84-3.74-7.7-3.74c-5.94,0-10.53,2.5-13.78,7.49
				c-3.25,4.99-4.88,10.83-4.88,17.52v26.42c0,3.96-1.93,5.93-5.79,5.93h-6.22C461.88,183.98,459.95,182,459.95,178.04z"/>
		</g>
	</g>
	<linearGradient id="SVGID_1_" gradientUnits="userSpaceOnUse" x1="566.6066" y1="58.0132" x2="683.3582" y2="58.0132">
		<stop  offset="0" style="stop-color:#94CB72"/>
		<stop  offset="1" style="stop-color:#41BBEC"/>
	</linearGradient>
	<path class="st1" d="M660.42,0h-35.7c-12.65,0-22.94,10.29-22.94,22.94v41.4c0,0.15-0.01,0.27-0.02,0.36
		c-0.27,0.06-0.65,0.09-0.95,0.08l-16.59-0.03c-9.71,0-17.62,7.9-17.62,17.62v16.04c0,9.72,7.9,17.62,17.62,17.62h16.04
		c9.72,0,17.62-7.9,17.62-17.62V82.33l-0.01-0.07c0.01-0.19,0.07-0.43,0.12-0.58c0.15-0.04,0.47-0.1,0.97-0.1h41.46
		c12.65,0,22.94-10.29,22.94-22.94v-35.7C683.36,10.29,673.07,0,660.42,0z M667.27,22.94v35.7c0,3.78-3.07,6.85-6.85,6.85h-41.46
		c-0.38,0-0.75,0.01-1.13,0.03c0.02-0.33,0.03-0.67,0.04-1V22.94c0-3.78,3.07-6.85,6.85-6.85h35.7
		C664.2,16.09,667.27,19.16,667.27,22.94z M601.85,80.85c-0.06,0.7-0.06,1.26-0.06,1.63v15.92c0,0.82-0.72,1.53-1.53,1.53h-16.04
		c-0.82,0-1.53-0.72-1.53-1.53V82.37c0-0.82,0.72-1.53,1.53-1.53l15.63,0C600.35,80.86,601.13,80.88,601.85,80.85z"/>
</g>
<g id="Layer_3">
</g>
<g id="icons">
</g>
<g id="icons_2">
</g>
<g id="Layer_5">
</g>
<g id="icons_1_">
</g>
<g id="Layer_7">
	<g id="XMLID_86_">
	</g>
	<g id="XMLID_67_">
		<g id="XMLID_10_">
		</g>
	</g>
</g>
<g id="Layer_8">
</g>
</svg>
