<?xml version="1.0" encoding="utf-8"?>
<!-- Generator: Adobe Illustrator 24.0.1, SVG Export Plug-In . SVG Version: 6.00 Build 0)  -->
<svg version="1.1" id="Layer_1" xmlns="http://www.w3.org/2000/svg" xmlns:xlink="http://www.w3.org/1999/xlink" x="0px" y="0px"
	 viewBox="0 0 116.75 116.03" style="enable-background:new 0 0 116.75 116.03;" xml:space="preserve">
<style type="text/css">
	.st0{fill:url(#SVGID_1_);}
</style>
<linearGradient id="SVGID_1_" gradientUnits="userSpaceOnUse" x1="0" y1="58.0132" x2="116.7516" y2="58.0132">
	<stop  offset="0" style="stop-color:#93CA71"/>
	<stop  offset="1" style="stop-color:#40B9EB"/>
</linearGradient>
<path class="st0" d="M93.82,0h-35.7C45.47,0,35.18,10.29,35.18,22.94v41.4c0,0.15-0.01,0.27-0.02,0.36
	c-0.27,0.06-0.65,0.09-0.95,0.08l-16.59-0.03C7.9,64.75,0,72.65,0,82.37v16.04c0,9.72,7.9,17.62,17.62,17.62h16.04
	c9.72,0,17.62-7.9,17.62-17.62V82.33l-0.01-0.07c0.01-0.19,0.07-0.43,0.12-0.58c0.15-0.04,0.47-0.1,0.97-0.1h41.46
	c12.65,0,22.94-10.29,22.94-22.94v-35.7C116.75,10.29,106.46,0,93.82,0z M100.67,22.94v35.7c0,3.78-3.07,6.85-6.85,6.85H52.35
	c-0.38,0-0.75,0.01-1.13,0.03c0.02-0.33,0.03-0.67,0.04-1V22.94c0-3.78,3.07-6.85,6.85-6.85h35.7
	C97.59,16.09,100.67,19.16,100.67,22.94z M35.25,80.85c-0.06,0.7-0.06,1.26-0.06,1.63v15.92c0,0.82-0.72,1.53-1.53,1.53H17.62
	c-0.82,0-1.53-0.72-1.53-1.53V82.37c0-0.82,0.72-1.53,1.53-1.53l15.63,0C33.75,80.86,34.52,80.88,35.25,80.85z"/>
</svg>
