<?xml version="1.0" encoding="utf-8"?>
<!-- Generator: Adobe Illustrator 24.0.3, SVG Export Plug-In . SVG Version: 6.00 Build 0)  -->
<svg version="1.1" id="Layer_1" xmlns="http://www.w3.org/2000/svg" xmlns:xlink="http://www.w3.org/1999/xlink" x="0px" y="0px"
	 viewBox="0 0 683.4 213.6" style="enable-background:new 0 0 683.4 213.6;" xml:space="preserve">
<style type="text/css">
	.st0{fill:#FFFFFF;stroke:#FFFFFF;stroke-miterlimit:10;}
</style>
<title>logo</title>
<path class="st0" d="M10,199c1.5-3.3,4-4.4,7.5-3.2c4.7,1.8,9.6,2.7,14.6,2.7c6,0,10.9-1.4,14.7-4.2s5.7-7.3,5.7-13.3v-5.4l0.3-3.7
	h-0.3c-4.1,7.2-10.7,10.7-19.8,10.7c-10.2,0-18.2-3.5-24-10.5c-5.8-7-8.7-15.7-8.7-26.1c0-10.4,2.8-18.9,8.5-25.7
	c5.7-6.7,13.7-10.1,24-10.1c2.9,0,5.8,0.4,8.6,1.1c2.2,0.6,4.3,1.5,6.2,2.8c1.4,1,2.6,2.1,3.8,3.2c0.8,0.8,1.5,1.7,2.1,2.8l0.6,1.1
	H54c-0.1-0.6-0.2-1.2-0.1-1.8v-2.7c0-1.3,0.5-2.6,1.5-3.5c1.2-1,2.8-1.5,4.3-1.3h4.8c3.9,0,5.8,2,5.8,5.9v61.8
	c0,11.4-3.7,19.9-11.1,25.6c-7.4,5.7-16.1,8.5-26.1,8.5c-8.1,0-15.1-1.3-21-3.8c-3.6-1.5-4.6-4.1-3.1-7.6L10,199z M36.2,167.5
	c4.5,0.1,8.8-1.7,11.9-5c3.2-3.3,4.7-8.7,4.7-16.1c0-13.9-5.8-20.9-17.5-20.9c-5.5,0-9.7,1.8-12.7,5.4c-3,3.6-4.5,8.4-4.5,14.4
	c0,6.7,1.6,12,4.8,16.1C26.1,165.4,30.5,167.5,36.2,167.5L36.2,167.5z"/>
<path class="st0" d="M85.8,158.3v-40.4c0-4,2-5.9,5.9-5.9h6.1c4,0,5.9,2,5.9,5.9v36.7c0,4.8,0.8,8.5,2.5,11s4.5,3.7,8.7,3.7
	c5.8,0.2,11.3-2.4,14.8-7.1c3.6-4.7,5.4-10.5,5.4-17.2v-27.2c0-4,2-5.9,5.9-5.9h6.1c4,0,5.9,2,5.9,5.9V178c0,4-2,5.9-5.9,5.9h-5.5
	c-3.9,0-5.8-2-5.8-5.9v-4.2l0.3-3.2h-0.3c-2.2,4.4-5.5,8-9.6,10.6c-4.6,3-9.9,4.6-15.4,4.5C94.1,185.7,85.8,176.5,85.8,158.3z"/>
<path class="st0" d="M169.3,178v-60.2c0-4,1.9-5.9,5.8-5.9h5.5c3.9,0,5.8,2,5.8,5.9v4.4l-0.3,3.2h0.3c2.2-4.3,5.4-8,9.4-10.7
	c4.1-3,9.1-4.6,14.2-4.6c11,0,18,4.9,21.1,14.8h0.3c2.3-4.3,5.7-7.9,9.8-10.5c4.4-2.9,9.5-4.4,14.7-4.4c15.7,0,23.6,9.1,23.6,27.4
	V178c0,4-2,5.9-5.9,5.9h-6.1c-4,0-5.9-2-5.9-5.9v-37c0-4.7-0.7-8.3-2-10.7c-1.3-2.4-3.9-3.7-7.8-3.7c-5.5-0.1-10.7,2.7-13.5,7.4
	c-3.3,5.2-5,11.4-4.9,17.6v26.4c0,4-1.9,5.9-5.8,5.9h-6.2c-4,0-5.9-2-5.9-5.9v-37c0-4.6-0.6-8.2-1.9-10.7s-3.8-3.7-7.7-3.7
	c-5.6-0.2-10.9,2.7-13.8,7.5c-3.3,5.2-5,11.3-4.9,17.5v26.4c0,4-1.9,5.9-5.8,5.9h-6.2C171.2,184,169.3,182,169.3,178z"/>
<path class="st0" d="M300.7,199c1.5-3.3,4-4.4,7.5-3.2c4.6,1.8,9.6,2.7,14.5,2.7c6,0,10.9-1.4,14.7-4.2c3.8-2.8,5.7-7.3,5.7-13.3
	v-5.4l0.3-3.7h-0.3c-4.1,7.2-10.7,10.7-19.8,10.7c-10.2,0-18.2-3.5-24-10.5c-5.8-7-8.7-15.7-8.7-26.1c0-10.4,2.8-18.9,8.5-25.7
	c5.7-6.7,13.7-10.1,24-10.1c2.9,0,5.8,0.4,8.6,1.1c2.2,0.6,4.3,1.5,6.2,2.8c1.4,1,2.6,2.1,3.8,3.2c0.8,0.8,1.5,1.7,2.1,2.8l0.6,1.1
	h0.3c-0.1-0.6-0.2-1.2-0.1-1.8v-2.7c0-1.3,0.5-2.6,1.5-3.5c1.2-1,2.8-1.5,4.3-1.3h4.8c3.9,0,5.8,2,5.8,5.9v61.8
	c0,11.4-3.7,19.9-11.1,25.6c-7.4,5.7-16.1,8.5-26.2,8.5c-8.1,0-15.1-1.3-21-3.8c-3.6-1.5-4.6-4.1-3.1-7.6L300.7,199z M326.9,167.5
	c4.5,0.1,8.8-1.7,11.9-5c3.2-3.3,4.7-8.7,4.7-16.1c0-13.9-5.8-20.9-17.5-20.9c-5.5,0-9.7,1.8-12.7,5.4s-4.5,8.4-4.5,14.4
	c0,6.7,1.6,12,4.8,16.1C316.8,165.4,321.2,167.5,326.9,167.5z"/>
<path class="st0" d="M376.4,158.3v-40.4c0-4,2-5.9,5.9-5.9h6.1c4,0,5.9,2,5.9,5.9v36.7c0,4.8,0.8,8.5,2.5,11s4.5,3.7,8.7,3.7
	c5.8,0.2,11.3-2.4,14.8-7.1c3.6-4.7,5.4-10.5,5.4-17.2v-27.2c0-4,2-5.9,5.9-5.9h6.1c3.9,0,5.9,2,5.9,5.9V178c0,4-2,5.9-5.9,5.9h-5.5
	c-3.9,0-5.8-2-5.8-5.9v-4.2l0.3-3.2h-0.3c-2.2,4.4-5.5,8-9.6,10.6c-4.6,3-9.9,4.6-15.4,4.5C384.8,185.7,376.4,176.5,376.4,158.3z"/>
<path class="st0" d="M459.9,178v-60.2c0-4,1.9-5.9,5.8-5.9h5.5c3.9,0,5.8,2,5.8,5.9v4.4l-0.3,3.2h0.3c2.2-4.3,5.4-8,9.4-10.7
	c4.1-3,9.1-4.6,14.2-4.6c11,0,18,4.9,21,14.8h0.3c2.3-4.3,5.7-7.9,9.8-10.5c4.4-2.9,9.5-4.4,14.8-4.4c15.7,0,23.6,9.1,23.6,27.4V178
	c0,4-2,5.9-5.9,5.9h-6.1c-3.9,0-5.9-2-5.9-5.9v-37c0-4.7-0.7-8.3-2-10.7c-1.4-2.5-4-3.7-7.8-3.7c-5.5-0.1-10.7,2.7-13.5,7.4
	c-3.3,5.2-5,11.4-4.9,17.6v26.4c0,4-1.9,5.9-5.8,5.9h-6.2c-3.9,0-5.9-2-5.9-5.9v-37c0-4.6-0.6-8.2-1.9-10.7
	c-1.3-2.5-3.8-3.7-7.7-3.7c-5.6-0.2-10.9,2.7-13.8,7.5c-3.3,5.2-5,11.3-4.9,17.5v26.4c0,4-1.9,5.9-5.8,5.9h-6.2
	C461.9,184,459.9,182,459.9,178z"/>
<path class="st0" d="M660.4,0h-35.7c-12.7,0-22.9,10.3-22.9,22.9v41.4c0,0.1,0,0.3,0,0.4c-0.3,0.1-0.7,0.1-1,0.1h-16.6
	c-9.7,0-17.6,7.9-17.6,17.6v16c0,9.7,7.9,17.6,17.6,17.6h16c9.7,0,17.7-7.8,17.7-17.6c0,0,0,0,0,0V82.3c0-0.2,0.1-0.4,0.1-0.6
	c0.3-0.1,0.7-0.1,1-0.1h41.5c12.6-0.1,22.8-10.3,22.9-22.9V23C683.3,10.3,673.1,0,660.4,0z M667.3,22.9v35.7c0,3.8-3.1,6.9-6.8,6.9
	H619c-0.4,0-0.8,0-1.1,0c0-0.3,0-0.7,0-1V22.9c0-3.8,3.1-6.8,6.8-6.9h35.7C664.2,16.1,667.2,19.1,667.3,22.9
	C667.3,22.9,667.3,22.9,667.3,22.9z M601.9,80.9c-0.1,0.7-0.1,1.3-0.1,1.6v15.9c0,0.8-0.7,1.5-1.5,1.5h-16c-0.8,0-1.5-0.7-1.5-1.5
	v-16c0-0.8,0.7-1.5,1.5-1.5h15.6C600.3,80.9,601.1,80.9,601.9,80.9z"/>
</svg>
