<?xml version="1.0" encoding="utf-8"?>
<!-- Generator: Adobe Illustrator 24.1.0, SVG Export Plug-In . SVG Version: 6.00 Build 0)  -->
<svg version="1.1" id="Layer_1" xmlns="http://www.w3.org/2000/svg" xmlns:xlink="http://www.w3.org/1999/xlink" x="0px" y="0px"
	 viewBox="0 0 83.5 20.9" style="enable-background:new 0 0 83.5 20.9;" xml:space="preserve">
<style type="text/css">
	.st0{fill:#F0B41C;}
	.st1{fill:#808184;}
</style>
<g>
	<path class="st0" d="M4.8,20.9c-0.8,0-1.5-0.1-2.3-0.3c-0.7-0.2-1.4-0.4-2-0.7l0.9-2c0.5,0.3,1,0.5,1.5,0.6
		c0.5,0.2,1.1,0.2,1.7,0.2c0.9,0,1.6-0.2,2.1-0.7c0.4-0.4,0.7-1.1,0.7-2v-0.5C7,16,6.6,16.4,6.1,16.6C5.6,16.9,5,17,4.3,17
		c-0.6,0-1.1-0.1-1.6-0.3c-0.5-0.2-1-0.5-1.4-0.9S0.6,15,0.4,14.4c-0.2-0.6-0.3-1.2-0.3-1.9l0,0c0-0.7,0.1-1.4,0.4-1.9
		c0.2-0.6,0.6-1,0.9-1.4c0.4-0.4,0.8-0.7,1.4-0.9C3.3,8.1,3.8,8,4.4,8c0.7,0,1.3,0.1,1.8,0.4s0.9,0.6,1.3,1v-1h2.7v7.4
		c0,1.7-0.4,3-1.2,3.8c-0.5,0.5-1,0.8-1.7,1C6.6,20.8,5.8,20.9,4.8,20.9z M5.1,15c0.3,0,0.6-0.1,0.9-0.2c0.3-0.1,0.5-0.3,0.7-0.5
		s0.4-0.4,0.5-0.7s0.2-0.6,0.2-0.9l0,0c0-0.3-0.1-0.6-0.2-0.9c-0.1-0.3-0.3-0.5-0.5-0.7S6.2,10.8,6,10.6c-0.3-0.1-0.6-0.2-0.9-0.2
		c-0.3,0-0.6,0.1-0.9,0.2c-0.3,0.1-0.5,0.3-0.7,0.5S3.1,11.5,3,11.8s-0.2,0.6-0.2,0.9l0,0c0,0.7,0.2,1.2,0.7,1.6
		C3.9,14.8,4.5,15,5.1,15z"/>
	<path class="st0" d="M15,18.2c-1,0-1.8-0.3-2.4-0.9c-0.6-0.6-0.8-1.5-0.8-2.6V8.4h2.7v5.3c0,0.6,0.1,1.1,0.4,1.5
		c0.3,0.3,0.7,0.5,1.2,0.5s0.9-0.2,1.2-0.5s0.5-0.8,0.5-1.5V8.4h2.7V18h-2.7v-1.4c-0.2,0.2-0.3,0.4-0.5,0.6s-0.4,0.4-0.6,0.5
		c-0.2,0.1-0.5,0.3-0.8,0.3C15.7,18.1,15.4,18.2,15,18.2z"/>
	<path class="st0" d="M22.2,8.4h2.7v1.4c0.2-0.2,0.3-0.4,0.5-0.6C25.6,9,25.8,8.8,26,8.7c0.2-0.1,0.5-0.3,0.8-0.3
		c0.3-0.1,0.6-0.1,0.9-0.1c0.6,0,1.2,0.1,1.6,0.4c0.5,0.3,0.8,0.6,1.1,1.1c0.4-0.5,0.9-0.9,1.4-1.1c0.5-0.3,1.1-0.4,1.8-0.4
		c1,0,1.8,0.3,2.4,0.9c0.6,0.6,0.9,1.5,0.9,2.6V18h-2.7v-5.3c0-0.6-0.1-1.1-0.4-1.5c-0.4-0.3-0.8-0.5-1.3-0.5s-0.9,0.2-1.2,0.5
		s-0.4,0.8-0.4,1.5V18h-2.7v-5.3c0-0.6-0.1-1.1-0.4-1.5c-0.3-0.3-0.7-0.5-1.2-0.5s-0.9,0.2-1.2,0.5S25,12,25,12.7V18h-2.7L22.2,8.4
		L22.2,8.4z"/>
	<path class="st1" d="M42.7,20.9c-0.8,0-1.5-0.1-2.3-0.3c-0.7-0.2-1.4-0.4-2-0.7l0.9-2c0.5,0.3,1,0.5,1.5,0.6
		c0.5,0.2,1.1,0.2,1.7,0.2c0.9,0,1.6-0.2,2.1-0.7c0.4-0.4,0.7-1.1,0.7-2v-0.5c-0.4,0.5-0.8,0.9-1.3,1.1c-0.5,0.3-1.1,0.4-1.8,0.4
		c-0.6,0-1.1-0.1-1.6-0.3c-0.5-0.2-1-0.5-1.4-0.9s-0.7-0.8-0.9-1.4c-0.2-0.6-0.3-1.2-0.3-1.9l0,0c0-0.7,0.1-1.4,0.4-1.9
		c0.2-0.6,0.6-1,0.9-1.4c0.4-0.4,0.8-0.7,1.4-0.9c0.5-0.2,1-0.3,1.6-0.3c0.7,0,1.3,0.1,1.8,0.4s0.9,0.6,1.3,1v-1h2.7v7.4
		c0,1.7-0.4,3-1.2,3.8c-0.5,0.5-1,0.8-1.7,1C44.5,20.8,43.7,20.9,42.7,20.9z M43,15c0.3,0,0.6-0.1,0.9-0.2c0.3-0.1,0.5-0.3,0.7-0.5
		s0.4-0.4,0.5-0.7s0.2-0.6,0.2-0.9l0,0c0-0.3-0.1-0.6-0.2-0.9c-0.1-0.3-0.3-0.5-0.5-0.7c-0.1-0.2-0.3-0.3-0.6-0.5
		c-0.3-0.1-0.6-0.2-0.9-0.2s-0.6,0.1-0.9,0.2c-0.3,0.1-0.5,0.3-0.7,0.5s-0.4,0.4-0.5,0.7s-0.2,0.6-0.2,0.9l0,0
		c0,0.7,0.2,1.2,0.7,1.6C41.8,14.8,42.4,15,43,15z"/>
	<path class="st1" d="M52.9,18.2c-1,0-1.8-0.3-2.4-0.9s-0.9-1.5-0.9-2.6V8.4h2.7v5.3c0,0.6,0.1,1.1,0.4,1.5c0.3,0.3,0.7,0.5,1.2,0.5
		s0.9-0.2,1.2-0.5c0.3-0.3,0.5-0.8,0.5-1.5V8.4h2.7V18h-2.7v-1.4c-0.2,0.2-0.3,0.4-0.5,0.6s-0.4,0.4-0.6,0.5S54,18,53.7,18
		C53.6,18.1,53.3,18.2,52.9,18.2z"/>
	<rect x="73.6" y="6.8" class="st0" width="3.2" height="3.2"/>
	<path class="st1" d="M73.6,10.8h-0.8V9.9V8.4c-0.3-0.1-0.7-0.1-1.2-0.1c-0.7,0-1.2,0.1-1.8,0.4c-0.5,0.3-1,0.6-1.4,1.1
		c-0.3-0.5-0.6-0.9-1.1-1.1c-0.5-0.3-1-0.4-1.6-0.4c-0.3,0-0.7,0-0.9,0.1c-0.3,0.1-0.5,0.2-0.8,0.3c-0.2,0.1-0.4,0.3-0.6,0.5
		c-0.2,0.2-0.4,0.4-0.5,0.6V8.4h-2.7V18h2.7v-5.3c0-0.6,0.1-1.1,0.4-1.5c0.3-0.3,0.7-0.5,1.2-0.5s0.9,0.2,1.2,0.5
		c0.3,0.3,0.4,0.8,0.4,1.5V18h2.7v-5.3c0-0.6,0.1-1.1,0.4-1.5c0.3-0.3,0.7-0.5,1.2-0.5s0.9,0.2,1.2,0.5c0.3,0.3,0.4,0.8,0.4,1.5V18
		h2.7v-6.2c0-0.4,0-0.7-0.1-1C74.6,10.8,73.6,10.8,73.6,10.8z"/>
	<path class="st1" d="M81.7,1.8V5h-3.2V1.8H81.7 M83.5,0h-6.8v6.8h6.8V0L83.5,0z"/>
</g>
</svg>
